<?xml version="1.0" encoding="UTF-8"?>
<!DOCTYPE svg PUBLIC "-//W3C//DTD SVG 1.1//EN" "http://www.w3.org/Graphics/SVG/1.1/DTD/svg11.dtd">
<!-- Creator: CorelDRAW 2017 -->
<svg xmlns="http://www.w3.org/2000/svg" xml:space="preserve" width="780px" height="220px" version="1.1" style="shape-rendering:geometricPrecision; text-rendering:geometricPrecision; image-rendering:optimizeQuality; fill-rule:evenodd; clip-rule:evenodd"
viewBox="170 430 780 220"
 xmlns:xlink="http://www.w3.org/1999/xlink">
 <defs>
  <style type="text/css">
   <![CDATA[
    .fil0 {fill:none}
    .fil1 {fill:black;fill-rule:nonzero}
    .fil2 {fill:#D50032;fill-rule:nonzero}
   ]]>
  </style>
 </defs>
 <g id="Слой_x0020_1">
  <metadata id="CorelCorpID_0Corel-Layer"/>
  <rect class="fil0" x="86.51" y="330.17" width="909.26" height="416.92"/>
  <polygon class="fil1" points="200.35,468.74 225.22,468.74 225.22,513.47 271.09,513.47 271.09,468.74 295.96,468.74 295.96,581.78 271.09,581.78 271.09,536.4 225.22,536.4 225.22,581.78 200.35,581.78 "/>
  <path class="fil1" d="M361.84 467.93l22.93 0 48.45 113.85 -26 0 -10.34 -25.35 -47.8 0 -10.33 25.35 -25.36 0 48.45 -113.85zm26.16 66.54l0 0 -15.02 -36.66 -15.02 36.66 30.04 0z"/>
  <path class="fil1" d="M450.66 468.74l46.18 0c26.97,0 43.28,15.99 43.28,39.4 0,26.16 -20.35,39.73 -45.7,39.73l-18.89 0 0 33.91 -24.87 0 0 -113.04zm44.57 57.01l0 0c12.43,0 19.7,-7.43 19.7,-17.45 0,-11.14 -7.75,-17.11 -20.19,-17.11l-19.21 0 0 34.56 19.7 0z"/>
  <polygon class="fil2" points="586.15,524.29 532.72,444.08 561.79,444.08 601.17,505.4 625.07,468.74 653.33,468.74 615.54,523.97 688.97,632.59 659.9,632.59 600.52,543.03 575,581.78 546.74,581.78 "/>
  <path class="fil1" d="M660.43 525.26c0,-32.14 25.35,-58.46 60.24,-58.46 34.88,0 59.91,26 59.91,58.46 0,32.14 -25.35,58.46 -60.24,58.46 -34.88,0 -59.91,-26 -59.91,-58.46zm94.15 0l0 0c0,-19.38 -14.21,-35.53 -34.24,-35.53 -20.02,0 -33.91,15.83 -33.91,35.53 0,19.38 14.21,35.53 34.24,35.53 20.02,0 33.91,-15.83 33.91,-35.53z"/>
  <path class="fil1" d="M878.92 497.16c0,14.05 -8.23,21.64 -18.24,26 12.11,3.88 21.15,12.28 21.15,26.65 0,19.54 -16.63,33.91 -42.96,33.91 -23.73,0 -38.11,-6.62 -50.22,-18.89l13.24 -17.28c9.21,9.04 21.32,14.37 36.02,14.37 10.49,0 19.05,-4.84 19.05,-13.56 0,-9.37 -9.53,-13.25 -22.45,-13.25l-13.08 0 0 -20.67 12.76 0c13.08,0 20.19,-4.52 20.19,-13.08 0,-7.91 -7.43,-12.6 -18.25,-12.6 -13.89,0 -22.93,4.69 -30.52,12.44l-13.08 -15.83c10.49,-10.98 24.06,-18.57 45.54,-18.57 24.22,0 40.85,12.76 40.85,30.36z"/>
  <g id="_2175829348976">
   <path class="fil1" d="M204.14 629.29l2.48 -4.84c1.47,0.84 2.89,1.16 4.52,1.16 1.64,0 3.95,-1 5.79,-4l-15.37 -27.9 7.27 0 11.47 21.42 10.11 -21.42 7 0 -14.37 28.79c-3.11,6.27 -6.9,8.64 -11.69,8.64 -2.84,0 -5.05,-0.69 -7.21,-1.85z"/>
   <polygon class="fil1" points="243.51,593.71 249.98,593.71 249.98,609.03 267.56,609.03 267.56,593.71 274.03,593.71 274.03,630.56 267.56,630.56 267.56,615.03 249.98,615.03 249.98,630.56 243.51,630.56 "/>
   <polygon class="fil1" points="283.5,593.71 289.87,593.71 289.87,620.61 308.51,593.71 314.56,593.71 314.56,630.56 308.19,630.56 308.19,603.71 289.61,630.56 283.5,630.56 "/>
   <path class="fil1" d="M324.08 593.71l16.53 0c4.21,0 7.52,1.16 9.63,3.27 1.63,1.63 2.47,3.63 2.47,6.21 0,4.42 -2.52,6.79 -5.26,8.21 4.31,1.47 7.31,3.94 7.31,9.05 0,6.58 -5.42,10.11 -13.63,10.11l-17.05 0 0 -36.85zm15.21 15.53l0 0c4.16,0 6.95,-1.63 6.95,-5.11 0,-2.89 -2.32,-4.68 -6.48,-4.68l-9.31 0 0 9.79 8.84 0zm1.9 15.58l0 0c4.42,0 7.1,-1.74 7.1,-5.16 0,-3.11 -2.47,-4.95 -7.58,-4.95l-10.26 0 0 10.11 10.74 0z"/>
   <polygon class="fil1" points="362.07,593.71 389.39,593.71 389.39,599.5 368.55,599.5 368.55,609.08 387.02,609.08 387.02,614.87 368.55,614.87 368.55,624.77 389.65,624.77 389.65,630.56 362.07,630.56 "/>
   <path class="fil1" d="M397.33 593.71l14.53 0c8.58,0 14,4.9 14,12.42 0,8.27 -6.63,12.58 -14.74,12.58l-7.31 0 0 11.85 -6.48 0 0 -36.85zm14.01 19.16l0 0c4.89,0 7.94,-2.74 7.94,-6.68 0,-4.32 -3.1,-6.58 -7.94,-6.58l-7.53 0 0 13.26 7.53 0z"/>
   <path class="fil1" d="M430.86 612.13c0,-10.47 7.84,-19.05 19,-19.05 6.79,0 10.89,2.37 14.42,5.74l-4.16 4.79c-2.95,-2.74 -6.1,-4.58 -10.31,-4.58 -7.06,0 -12.16,5.79 -12.16,13.1 0,7.21 5.1,13.11 12.16,13.11 4.52,0 7.42,-1.84 10.57,-4.79l4.16 4.21c-3.84,4 -8.05,6.53 -14.95,6.53 -10.73,0 -18.73,-8.37 -18.73,-19.06z"/>
   <polygon class="fil1" points="471.33,593.71 477.7,593.71 477.7,620.61 496.33,593.71 502.38,593.71 502.38,630.56 496.01,630.56 496.01,603.71 477.43,630.56 471.33,630.56 "/>
   <polygon class="fil1" points="520.95,599.71 509.27,599.71 509.27,593.71 539.17,593.71 539.17,599.71 527.48,599.71 527.48,630.56 520.95,630.56 "/>
   <polygon class="fil1" points="546,593.71 573.32,593.71 573.32,599.5 552.48,599.5 552.48,609.08 570.95,609.08 570.95,614.87 552.48,614.87 552.48,624.77 573.58,624.77 573.58,630.56 546,630.56 "/>
   <polygon class="fil1" points="590.32,599.71 578.63,599.71 578.63,593.71 608.53,593.71 608.53,599.71 596.84,599.71 596.84,630.56 590.32,630.56 "/>
  </g>
 </g>
</svg>
